<svg xmlns="http://www.w3.org/2000/svg" viewBox="0 0 128 128">
  <defs>
    <linearGradient id="bg" x1="0" y1="0" x2="1" y2="1">
      <stop offset="0%" stop-color="#5B2A86"/>
      <stop offset="50%" stop-color="#1E5AA8"/>
      <stop offset="100%" stop-color="#2D123F"/>
    </linearGradient>

    <linearGradient id="gold" x1="0" y1="0" x2="0" y2="1">
      <stop offset="0%" stop-color="#F2D27A"/>
      <stop offset="100%" stop-color="#D4AF37"/>
    </linearGradient>
  </defs>

  <rect width="128" height="128" rx="26" fill="url(#bg)"/>

  <circle cx="64" cy="64" r="48" fill="none" stroke="#FAF7F0" stroke-width="2"/>
  <circle cx="64" cy="64" r="44" fill="none" stroke="url(#gold)" stroke-width="2"/>

  <path d="M64 22 C56 36,52 48,52 62 C52 82,58 94,64 106 C70 94,76 82,76 62 C76 48,72 36,64 22Z"
        fill="url(#gold)"/>

  <path d="M38 52 C48 58,52 68,54 80 C40 78,32 70,30 60 C32 56,35 54,38 52Z"
        fill="#1E5AA8"/>

  <path d="M90 52 C80 58,76 68,74 80 C88 78,96 70,98 60 C96 56,93 54,90 52Z"
        fill="#6B4423"/>

  <text x="64" y="92" text-anchor="middle"
        font-family="Georgia" font-size="28"
        fill="#FAF7F0" font-weight="bold">
    LH
  </text>
</svg>